<mxfile host="65bd71144e">
    <diagram id="IiRRCCD1RrRyGsutkdEk" name="Page-1">
        <mxGraphModel dx="1037" dy="790" grid="1" gridSize="10" guides="1" tooltips="1" connect="1" arrows="1" fold="1" page="1" pageScale="1" pageWidth="827" pageHeight="1169" math="0" shadow="0">
            <root>
                <mxCell id="0"/>
                <mxCell id="1" parent="0"/>
                <mxCell id="2" value="" style="rounded=0;whiteSpace=wrap;html=1;fillColor=#18141D;" vertex="1" parent="1">
                    <mxGeometry width="480" height="460" as="geometry"/>
                </mxCell>
                <mxCell id="3" style="edgeStyle=none;html=1;exitX=0;exitY=1;exitDx=0;exitDy=0;entryX=0.5;entryY=0;entryDx=0;entryDy=0;fontColor=#FFFFFF;strokeColor=#FFFFFF;" edge="1" parent="1" source="5" target="8">
                    <mxGeometry relative="1" as="geometry"/>
                </mxCell>
                <mxCell id="4" style="edgeStyle=none;html=1;exitX=1;exitY=1;exitDx=0;exitDy=0;entryX=0.5;entryY=0;entryDx=0;entryDy=0;fontColor=#FFFFFF;strokeColor=#FFFFFF;" edge="1" parent="1" source="5" target="11">
                    <mxGeometry relative="1" as="geometry"/>
                </mxCell>
                <mxCell id="5" value="1" style="ellipse;whiteSpace=wrap;html=1;aspect=fixed;fontSize=20;fontColor=#FFFFFF;fillColor=#18141D;strokeColor=#FFFFFF;" vertex="1" parent="1">
                    <mxGeometry x="212.5" y="10" width="55" height="55" as="geometry"/>
                </mxCell>
                <mxCell id="6" style="edgeStyle=none;html=1;exitX=0;exitY=1;exitDx=0;exitDy=0;entryX=0.5;entryY=0;entryDx=0;entryDy=0;fontColor=#FFFFFF;strokeColor=#FFFFFF;" edge="1" parent="1" source="8" target="14">
                    <mxGeometry relative="1" as="geometry"/>
                </mxCell>
                <mxCell id="7" style="edgeStyle=none;html=1;exitX=1;exitY=1;exitDx=0;exitDy=0;entryX=0.5;entryY=0;entryDx=0;entryDy=0;fontColor=#FFFFFF;strokeColor=#FFFFFF;" edge="1" parent="1" source="8" target="17">
                    <mxGeometry relative="1" as="geometry"/>
                </mxCell>
                <mxCell id="63" style="edgeStyle=none;html=1;exitX=1;exitY=0.5;exitDx=0;exitDy=0;entryX=0;entryY=0.5;entryDx=0;entryDy=0;" edge="1" parent="1" source="8" target="61">
                    <mxGeometry relative="1" as="geometry"/>
                </mxCell>
                <mxCell id="65" style="edgeStyle=none;html=1;exitX=0;exitY=0;exitDx=0;exitDy=0;entryX=1;entryY=0.5;entryDx=0;entryDy=0;" edge="1" parent="1" source="8" target="64">
                    <mxGeometry relative="1" as="geometry"/>
                </mxCell>
                <mxCell id="8" value="2" style="ellipse;whiteSpace=wrap;html=1;aspect=fixed;fontSize=20;fontColor=#FFFFFF;fillColor=#FF33FF;strokeColor=#FFFF00;strokeWidth=6;" vertex="1" parent="1">
                    <mxGeometry x="105" y="80" width="55" height="55" as="geometry"/>
                </mxCell>
                <mxCell id="9" style="edgeStyle=none;html=1;exitX=0;exitY=1;exitDx=0;exitDy=0;entryX=0.5;entryY=0;entryDx=0;entryDy=0;fontColor=#FFFFFF;strokeColor=#FFFFFF;" edge="1" parent="1" source="11" target="19">
                    <mxGeometry relative="1" as="geometry"/>
                </mxCell>
                <mxCell id="10" style="edgeStyle=none;html=1;exitX=1;exitY=1;exitDx=0;exitDy=0;entryX=0.5;entryY=0;entryDx=0;entryDy=0;fontColor=#FFFFFF;strokeColor=#FFFFFF;" edge="1" parent="1" source="11" target="20">
                    <mxGeometry relative="1" as="geometry"/>
                </mxCell>
                <mxCell id="11" value="&lt;font&gt;3&lt;/font&gt;" style="ellipse;whiteSpace=wrap;html=1;aspect=fixed;fontSize=20;fontColor=#FFFFFF;fillColor=#18141D;strokeColor=#FFFFFF;" vertex="1" parent="1">
                    <mxGeometry x="320" y="80" width="55" height="55" as="geometry"/>
                </mxCell>
                <mxCell id="12" style="edgeStyle=none;html=1;exitX=0;exitY=1;exitDx=0;exitDy=0;entryX=0.5;entryY=0;entryDx=0;entryDy=0;strokeColor=#FFFFFF;" edge="1" parent="1" source="14" target="21">
                    <mxGeometry relative="1" as="geometry"/>
                </mxCell>
                <mxCell id="13" style="edgeStyle=none;html=1;exitX=1;exitY=1;exitDx=0;exitDy=0;strokeColor=#FFFFFF;" edge="1" parent="1" source="14" target="22">
                    <mxGeometry relative="1" as="geometry"/>
                </mxCell>
                <mxCell id="14" value="4" style="ellipse;whiteSpace=wrap;html=1;aspect=fixed;fontSize=20;fontColor=#FFFFFF;fillColor=#18141D;strokeColor=#FFFFFF;" vertex="1" parent="1">
                    <mxGeometry x="50" y="160" width="55" height="55" as="geometry"/>
                </mxCell>
                <mxCell id="15" style="edgeStyle=none;html=1;exitX=0;exitY=1;exitDx=0;exitDy=0;strokeColor=#FFFFFF;" edge="1" parent="1" source="17" target="23">
                    <mxGeometry relative="1" as="geometry"/>
                </mxCell>
                <mxCell id="16" style="edgeStyle=none;html=1;exitX=1;exitY=1;exitDx=0;exitDy=0;entryX=0.5;entryY=0;entryDx=0;entryDy=0;strokeColor=#FFFFFF;" edge="1" parent="1" source="17" target="25">
                    <mxGeometry relative="1" as="geometry"/>
                </mxCell>
                <mxCell id="17" value="5" style="ellipse;whiteSpace=wrap;html=1;aspect=fixed;fontSize=20;fontColor=#FFFFFF;fillColor=#18141D;strokeColor=#FFFFFF;" vertex="1" parent="1">
                    <mxGeometry x="160" y="160" width="55" height="55" as="geometry"/>
                </mxCell>
                <mxCell id="18" style="edgeStyle=none;html=1;exitX=0;exitY=1;exitDx=0;exitDy=0;strokeColor=#FFFFFF;" edge="1" parent="1" source="19" target="24">
                    <mxGeometry relative="1" as="geometry"/>
                </mxCell>
                <mxCell id="19" value="6" style="ellipse;whiteSpace=wrap;html=1;aspect=fixed;fontSize=20;fontColor=#ffffff;fillColor=#18141D;strokeColor=#FFFFFF;" vertex="1" parent="1">
                    <mxGeometry x="270" y="160" width="55" height="55" as="geometry"/>
                </mxCell>
                <mxCell id="20" value="7" style="ellipse;whiteSpace=wrap;html=1;aspect=fixed;fontSize=20;fontColor=#ffffff;fillColor=#18141D;strokeColor=#FFFFFF;" vertex="1" parent="1">
                    <mxGeometry x="375" y="160" width="55" height="55" as="geometry"/>
                </mxCell>
                <mxCell id="21" value="8" style="ellipse;whiteSpace=wrap;html=1;aspect=fixed;fontSize=20;fontColor=#ffffff;fillColor=#18141D;strokeColor=#FFFFFF;" vertex="1" parent="1">
                    <mxGeometry x="20" y="260" width="55" height="55" as="geometry"/>
                </mxCell>
                <mxCell id="22" value="9" style="ellipse;whiteSpace=wrap;html=1;aspect=fixed;fontSize=20;fontColor=#ffffff;fillColor=#18141D;strokeColor=#FFFFFF;" vertex="1" parent="1">
                    <mxGeometry x="75" y="260" width="55" height="55" as="geometry"/>
                </mxCell>
                <mxCell id="23" value="10" style="ellipse;whiteSpace=wrap;html=1;aspect=fixed;fontSize=20;fontColor=#ffffff;fillColor=#18141D;strokeColor=#FFFFFF;" vertex="1" parent="1">
                    <mxGeometry x="130" y="260" width="55" height="55" as="geometry"/>
                </mxCell>
                <mxCell id="24" value="12" style="ellipse;whiteSpace=wrap;html=1;aspect=fixed;fontSize=20;fontColor=#ffffff;fillColor=#18141D;strokeColor=#FFFFFF;" vertex="1" parent="1">
                    <mxGeometry x="240" y="260" width="55" height="55" as="geometry"/>
                </mxCell>
                <mxCell id="62" style="edgeStyle=none;html=1;exitX=1;exitY=0;exitDx=0;exitDy=0;entryX=0.5;entryY=1;entryDx=0;entryDy=0;" edge="1" parent="1" source="25" target="61">
                    <mxGeometry relative="1" as="geometry"/>
                </mxCell>
                <mxCell id="25" value="11" style="ellipse;whiteSpace=wrap;html=1;aspect=fixed;fontSize=20;fontColor=#ffffff;fillColor=#FF33FF;strokeColor=#FF33FF;" vertex="1" parent="1">
                    <mxGeometry x="185" y="260" width="55" height="55" as="geometry"/>
                </mxCell>
                <mxCell id="27" value="情况1，最小公共父节点就是目标节点" style="rounded=0;whiteSpace=wrap;html=1;align=left;" vertex="1" parent="1">
                    <mxGeometry x="40" y="380" width="400" height="40" as="geometry"/>
                </mxCell>
                <mxCell id="28" value="" style="rounded=0;whiteSpace=wrap;html=1;fillColor=#18141D;" vertex="1" parent="1">
                    <mxGeometry x="480" width="480" height="460" as="geometry"/>
                </mxCell>
                <mxCell id="29" style="edgeStyle=none;html=1;exitX=0;exitY=1;exitDx=0;exitDy=0;entryX=0.5;entryY=0;entryDx=0;entryDy=0;fontColor=#FFFFFF;strokeColor=#FFFFFF;" edge="1" parent="1" source="31" target="34">
                    <mxGeometry relative="1" as="geometry"/>
                </mxCell>
                <mxCell id="30" style="edgeStyle=none;html=1;exitX=1;exitY=1;exitDx=0;exitDy=0;entryX=0.5;entryY=0;entryDx=0;entryDy=0;fontColor=#FFFFFF;strokeColor=#FFFFFF;" edge="1" parent="1" source="31" target="37">
                    <mxGeometry relative="1" as="geometry"/>
                </mxCell>
                <mxCell id="31" value="1" style="ellipse;whiteSpace=wrap;html=1;aspect=fixed;fontSize=20;fontColor=#FFFFFF;fillColor=#18141D;strokeColor=#FFFFFF;" vertex="1" parent="1">
                    <mxGeometry x="692.5" y="10" width="55" height="55" as="geometry"/>
                </mxCell>
                <mxCell id="32" style="edgeStyle=none;html=1;exitX=0;exitY=1;exitDx=0;exitDy=0;entryX=0.5;entryY=0;entryDx=0;entryDy=0;fontColor=#FFFFFF;strokeColor=#FFFFFF;" edge="1" parent="1" source="34" target="40">
                    <mxGeometry relative="1" as="geometry"/>
                </mxCell>
                <mxCell id="33" style="edgeStyle=none;html=1;exitX=1;exitY=1;exitDx=0;exitDy=0;entryX=0.5;entryY=0;entryDx=0;entryDy=0;fontColor=#FFFFFF;strokeColor=#FFFFFF;" edge="1" parent="1" source="34" target="43">
                    <mxGeometry relative="1" as="geometry"/>
                </mxCell>
                <mxCell id="60" style="edgeStyle=none;html=1;exitX=0;exitY=0;exitDx=0;exitDy=0;entryX=1;entryY=0.5;entryDx=0;entryDy=0;" edge="1" parent="1" source="34" target="58">
                    <mxGeometry relative="1" as="geometry"/>
                </mxCell>
                <mxCell id="34" value="2" style="ellipse;whiteSpace=wrap;html=1;aspect=fixed;fontSize=20;fontColor=#FFFFFF;fillColor=#18141D;strokeColor=#FFFF00;strokeWidth=6;" vertex="1" parent="1">
                    <mxGeometry x="585" y="80" width="55" height="55" as="geometry"/>
                </mxCell>
                <mxCell id="35" style="edgeStyle=none;html=1;exitX=0;exitY=1;exitDx=0;exitDy=0;entryX=0.5;entryY=0;entryDx=0;entryDy=0;fontColor=#FFFFFF;strokeColor=#FFFFFF;" edge="1" parent="1" source="37" target="45">
                    <mxGeometry relative="1" as="geometry"/>
                </mxCell>
                <mxCell id="36" style="edgeStyle=none;html=1;exitX=1;exitY=1;exitDx=0;exitDy=0;entryX=0.5;entryY=0;entryDx=0;entryDy=0;fontColor=#FFFFFF;strokeColor=#FFFFFF;" edge="1" parent="1" source="37" target="46">
                    <mxGeometry relative="1" as="geometry"/>
                </mxCell>
                <mxCell id="37" value="&lt;font&gt;3&lt;/font&gt;" style="ellipse;whiteSpace=wrap;html=1;aspect=fixed;fontSize=20;fontColor=#FFFFFF;fillColor=#18141D;strokeColor=#FFFFFF;" vertex="1" parent="1">
                    <mxGeometry x="800" y="80" width="55" height="55" as="geometry"/>
                </mxCell>
                <mxCell id="38" style="edgeStyle=none;html=1;exitX=0;exitY=1;exitDx=0;exitDy=0;entryX=0.5;entryY=0;entryDx=0;entryDy=0;strokeColor=#FFFFFF;" edge="1" parent="1" source="40" target="47">
                    <mxGeometry relative="1" as="geometry"/>
                </mxCell>
                <mxCell id="39" style="edgeStyle=none;html=1;exitX=1;exitY=1;exitDx=0;exitDy=0;strokeColor=#FFFFFF;" edge="1" parent="1" source="40" target="48">
                    <mxGeometry relative="1" as="geometry"/>
                </mxCell>
                <mxCell id="40" value="4" style="ellipse;whiteSpace=wrap;html=1;aspect=fixed;fontSize=20;fontColor=#FFFFFF;fillColor=#18141D;strokeColor=#FFFFFF;" vertex="1" parent="1">
                    <mxGeometry x="530" y="160" width="55" height="55" as="geometry"/>
                </mxCell>
                <mxCell id="41" style="edgeStyle=none;html=1;exitX=0;exitY=1;exitDx=0;exitDy=0;strokeColor=#FFFFFF;" edge="1" parent="1" source="43" target="49">
                    <mxGeometry relative="1" as="geometry"/>
                </mxCell>
                <mxCell id="42" style="edgeStyle=none;html=1;exitX=1;exitY=1;exitDx=0;exitDy=0;entryX=0.5;entryY=0;entryDx=0;entryDy=0;strokeColor=#FFFFFF;" edge="1" parent="1" source="43" target="51">
                    <mxGeometry relative="1" as="geometry"/>
                </mxCell>
                <mxCell id="43" value="5" style="ellipse;whiteSpace=wrap;html=1;aspect=fixed;fontSize=20;fontColor=#FFFFFF;fillColor=#18141D;strokeColor=#FFFFFF;" vertex="1" parent="1">
                    <mxGeometry x="640" y="160" width="55" height="55" as="geometry"/>
                </mxCell>
                <mxCell id="44" style="edgeStyle=none;html=1;exitX=0;exitY=1;exitDx=0;exitDy=0;strokeColor=#FFFFFF;" edge="1" parent="1" source="45" target="50">
                    <mxGeometry relative="1" as="geometry"/>
                </mxCell>
                <mxCell id="45" value="6" style="ellipse;whiteSpace=wrap;html=1;aspect=fixed;fontSize=20;fontColor=#ffffff;fillColor=#18141D;strokeColor=#FFFFFF;" vertex="1" parent="1">
                    <mxGeometry x="750" y="160" width="55" height="55" as="geometry"/>
                </mxCell>
                <mxCell id="46" value="7" style="ellipse;whiteSpace=wrap;html=1;aspect=fixed;fontSize=20;fontColor=#ffffff;fillColor=#18141D;strokeColor=#FFFFFF;" vertex="1" parent="1">
                    <mxGeometry x="855" y="160" width="55" height="55" as="geometry"/>
                </mxCell>
                <mxCell id="56" style="edgeStyle=none;html=1;exitX=0.5;exitY=1;exitDx=0;exitDy=0;" edge="1" parent="1" source="47" target="55">
                    <mxGeometry relative="1" as="geometry"/>
                </mxCell>
                <mxCell id="47" value="8" style="ellipse;whiteSpace=wrap;html=1;aspect=fixed;fontSize=20;fontColor=#ffffff;fillColor=#FF33FF;strokeColor=#FF33FF;" vertex="1" parent="1">
                    <mxGeometry x="500" y="260" width="55" height="55" as="geometry"/>
                </mxCell>
                <mxCell id="48" value="9" style="ellipse;whiteSpace=wrap;html=1;aspect=fixed;fontSize=20;fontColor=#ffffff;fillColor=#18141D;strokeColor=#FFFFFF;" vertex="1" parent="1">
                    <mxGeometry x="555" y="260" width="55" height="55" as="geometry"/>
                </mxCell>
                <mxCell id="49" value="10" style="ellipse;whiteSpace=wrap;html=1;aspect=fixed;fontSize=20;fontColor=#ffffff;fillColor=#18141D;strokeColor=#FFFFFF;" vertex="1" parent="1">
                    <mxGeometry x="610" y="260" width="55" height="55" as="geometry"/>
                </mxCell>
                <mxCell id="50" value="12" style="ellipse;whiteSpace=wrap;html=1;aspect=fixed;fontSize=20;fontColor=#ffffff;fillColor=#18141D;strokeColor=#FFFFFF;" vertex="1" parent="1">
                    <mxGeometry x="720" y="260" width="55" height="55" as="geometry"/>
                </mxCell>
                <mxCell id="57" style="edgeStyle=none;html=1;exitX=0.5;exitY=1;exitDx=0;exitDy=0;entryX=1;entryY=0.25;entryDx=0;entryDy=0;" edge="1" parent="1" source="51" target="55">
                    <mxGeometry relative="1" as="geometry"/>
                </mxCell>
                <mxCell id="51" value="11" style="ellipse;whiteSpace=wrap;html=1;aspect=fixed;fontSize=20;fontColor=#ffffff;fillColor=#FF33FF;strokeColor=#FF33FF;" vertex="1" parent="1">
                    <mxGeometry x="665" y="260" width="55" height="55" as="geometry"/>
                </mxCell>
                <mxCell id="52" value="情况1，最小公共父节点不是目标节点" style="rounded=0;whiteSpace=wrap;html=1;align=left;" vertex="1" parent="1">
                    <mxGeometry x="520" y="380" width="400" height="40" as="geometry"/>
                </mxCell>
                <mxCell id="55" value="目标节点" style="rounded=0;whiteSpace=wrap;html=1;align=left;" vertex="1" parent="1">
                    <mxGeometry x="590" y="340" width="50" height="20" as="geometry"/>
                </mxCell>
                <mxCell id="58" value="最小公共节点" style="rounded=0;whiteSpace=wrap;html=1;align=left;" vertex="1" parent="1">
                    <mxGeometry x="510" y="70" width="45" height="30" as="geometry"/>
                </mxCell>
                <mxCell id="61" value="目标节点" style="rounded=0;whiteSpace=wrap;html=1;align=left;" vertex="1" parent="1">
                    <mxGeometry x="200" y="120" width="50" height="20" as="geometry"/>
                </mxCell>
                <mxCell id="64" value="最小公共节点" style="rounded=0;whiteSpace=wrap;html=1;align=left;" vertex="1" parent="1">
                    <mxGeometry x="40" y="65" width="45" height="30" as="geometry"/>
                </mxCell>
            </root>
        </mxGraphModel>
    </diagram>
</mxfile>